<svg width="24" height="24" viewBox="0 0 24 24" fill="none" xmlns="http://www.w3.org/2000/svg">
<path d="M5.25 9.75H9L12 6.75V17.25L9 14.25H5.25V9.75Z" stroke="white" stroke-width="1.5" stroke-linejoin="round"/>
<path d="M18.2197 14.2803C18.5126 14.5732 18.9874 14.5732 19.2803 14.2803C19.5732 13.9874 19.5732 13.5126 19.2803 13.2197L18.2197 14.2803ZM15.7803 9.71967C15.4874 9.42678 15.0126 9.42678 14.7197 9.71967C14.4268 10.0126 14.4268 10.4874 14.7197 10.7803L15.7803 9.71967ZM19.2803 13.2197L15.7803 9.71967L14.7197 10.7803L18.2197 14.2803L19.2803 13.2197Z" fill="white"/>
<path d="M14.7197 13.2197C14.4268 13.5126 14.4268 13.9874 14.7197 14.2803C15.0126 14.5732 15.4874 14.5732 15.7803 14.2803L14.7197 13.2197ZM19.2803 10.7803C19.5732 10.4874 19.5732 10.0126 19.2803 9.71967C18.9874 9.42678 18.5126 9.42678 18.2197 9.71967L19.2803 10.7803ZM15.7803 14.2803L19.2803 10.7803L18.2197 9.71967L14.7197 13.2197L15.7803 14.2803Z" fill="white"/>
</svg>
