<svg width="24" height="24" viewBox="0 0 24 24" fill="none" xmlns="http://www.w3.org/2000/svg">
<path d="M5.25 9.75H9L12 6.75V17.25L9 14.25H5.25V9.75Z" stroke="white" stroke-width="1.5" stroke-linejoin="round"/>
<path d="M14.5 14.5C14.944 14.2952 15.3235 13.9484 15.5905 13.5034C15.8575 13.0584 16 12.5352 16 12C16 11.4648 15.8575 10.9416 15.5905 10.4966C15.3235 10.0516 14.944 9.70481 14.5 9.5" stroke="white" stroke-width="1.5" stroke-linecap="round" stroke-linejoin="round"/>
<path d="M15.25 17.25C16.286 16.8199 17.1715 16.0916 17.7945 15.1571C18.4175 14.2226 18.75 13.1239 18.75 12C18.75 10.8761 18.4175 9.77743 17.7945 8.84294C17.1715 7.90845 16.286 7.1801 15.25 6.75" stroke="white" stroke-width="1.5" stroke-linecap="round" stroke-linejoin="round"/>
</svg>
